<?xml version="1.0" encoding="iso-8859-1"?>
<!-- Generator: Adobe Illustrator 18.0.0, SVG Export Plug-In . SVG Version: 6.00 Build 0)  -->
<!DOCTYPE svg PUBLIC "-//W3C//DTD SVG 1.1//EN" "http://www.w3.org/Graphics/SVG/1.1/DTD/svg11.dtd">
<svg version="1.1" id="Capa_1" xmlns="http://www.w3.org/2000/svg" xmlns:xlink="http://www.w3.org/1999/xlink" x="0px" y="0px"
	 viewBox="0 0 297 297" style="enable-background:new 0 0 297 297;" xml:space="preserve">
<g>
	<path d="M277.918,180.513c-7.372,1.592-12.059,8.86-10.467,16.233c0.26,1.201,0.561,3.421-0.331,4.777
		c-0.719,1.093-2.41,1.97-4.639,2.407c-2.055,0.4-7.165-1.147-11.871-10.151l-24.08-48.084h38.583
		c9.879,0,18.948-4.207,24.881-11.411c5.934-7.204,8.253-16.934,6.361-26.631l-8.359-42.916
		c-3.577-18.335-21.012-32.773-39.692-32.773H48.696c-18.679,0-36.114,14.42-39.692,32.753l-8.359,42.87
		c-1.892,9.695,0.427,19.478,6.361,26.682c5.933,7.203,15.002,11.425,24.881,11.425h37.712l-24.08,48.083
		c-4.708,9.008-9.836,10.591-11.871,10.19c-2.23-0.437-3.921-1.333-4.64-2.426c-0.893-1.356-0.591-3.585-0.331-4.786
		c1.592-7.372-3.094-14.645-10.467-16.237c-7.375-1.598-14.64,3.092-16.233,10.464c-2.039,9.438-0.58,18.277,4.217,25.562
		c4.795,7.284,12.679,12.323,22.198,14.189c1.871,0.367,3.849,0.565,5.902,0.565c11.74-0.001,25.848-6.496,35.508-25.089
		c0.032-0.064,0.065-0.05,0.096-0.114l30.239-60.402h34.395v74.672l-8.134-7.585c-5.563-5.093-14.125-4.71-19.218,0.855
		c-5.093,5.564-4.671,14.203,0.893,19.295l31.186,28.523c2.612,2.39,5.925,3.583,9.229,3.583c3.385,0,6.773-1.252,9.405-3.749
		l30.074-28.523c5.472-5.19,5.702-13.835,0.511-19.307c-5.19-5.473-13.679-5.7-19.152-0.51l-6.86,6.654v-73.907h33.524
		l30.238,60.402c0.032,0.064,0.065,0.089,0.097,0.152c9.661,18.593,23.767,25.07,35.508,25.07c2.052,0,4.031-0.208,5.901-0.575
		c9.519-1.866,17.403-6.91,22.198-14.195c4.796-7.285,6.255-16.128,4.217-25.566C292.56,183.609,285.291,178.931,277.918,180.513z
		 M28.088,116.607c-0.737-0.895-0.961-2.196-0.633-3.876l8.359-43.03C36.878,64.247,43.138,58.9,48.696,58.9h199.608
		c5.558,0,11.818,5.405,12.882,10.86l8.359,42.962c0.328,1.682,0.104,2.928-0.633,3.822c-0.737,0.895-2.086,1.216-3.799,1.216
		H31.887C30.173,117.76,28.824,117.501,28.088,116.607z"/>
	<path d="M233.596,75.86h-22.062c-7.543,0-13.657,6.424-13.657,13.967c0,7.543,6.115,13.967,13.657,13.967h22.062
		c7.543,0,13.657-6.424,13.657-13.967C247.254,82.284,241.139,75.86,233.596,75.86z"/>
</g>
<g>
</g>
<g>
</g>
<g>
</g>
<g>
</g>
<g>
</g>
<g>
</g>
<g>
</g>
<g>
</g>
<g>
</g>
<g>
</g>
<g>
</g>
<g>
</g>
<g>
</g>
<g>
</g>
<g>
</g>
</svg>
