<?xml version="1.0" encoding="iso-8859-1"?>
<!-- Generator: Adobe Illustrator 18.0.0, SVG Export Plug-In . SVG Version: 6.00 Build 0)  -->
<!DOCTYPE svg PUBLIC "-//W3C//DTD SVG 1.1//EN" "http://www.w3.org/Graphics/SVG/1.1/DTD/svg11.dtd">
<svg version="1.1" id="Capa_1" xmlns="http://www.w3.org/2000/svg" xmlns:xlink="http://www.w3.org/1999/xlink" x="0px" y="0px"
	 viewBox="0 0 190.125 190.125" style="enable-background:new 0 0 190.125 190.125;" xml:space="preserve">
<path d="M182.625,87.563h-24.537l8.358-14.477c2.071-3.587,0.842-8.174-2.745-10.245c-3.586-2.072-8.175-0.843-10.245,2.745
	l-8.359,14.477l-12.027-20.832h16.72c4.143,0,7.5-3.358,7.5-7.5s-3.357-7.5-7.5-7.5H133.07l12.269-21.249
	c2.071-3.587,0.842-8.174-2.745-10.245c-3.589-2.072-8.175-0.843-10.245,2.745l-12.269,21.25l-8.36-14.48
	c-2.07-3.588-6.659-4.817-10.245-2.745c-3.587,2.071-4.816,6.658-2.745,10.245l8.359,14.479H83.034l8.36-14.479
	c2.071-3.587,0.842-8.174-2.745-10.245c-3.588-2.072-8.175-0.842-10.245,2.745L70.044,36.73L57.776,15.482
	c-2.071-3.587-6.659-4.816-10.245-2.745c-3.588,2.071-4.817,6.658-2.745,10.245l12.268,21.249H40.336c-4.142,0-7.5,3.358-7.5,7.5
	s3.358,7.5,7.5,7.5h16.717L45.026,80.063l-8.359-14.477c-2.071-3.587-6.659-4.816-10.245-2.745
	c-3.587,2.071-4.816,6.658-2.745,10.245l8.359,14.477H7.5c-4.142,0-7.5,3.358-7.5,7.5c0,4.142,3.358,7.5,7.5,7.5h24.536
	l-8.359,14.479c-2.071,3.587-0.842,8.174,2.745,10.245c1.181,0.682,2.471,1.006,3.743,1.006c2.592,0,5.113-1.346,6.502-3.751
	l8.359-14.479l12.027,20.832H40.336c-4.142,0-7.5,3.358-7.5,7.5s3.358,7.5,7.5,7.5h16.718l-12.268,21.249
	c-2.071,3.587-0.842,8.174,2.745,10.245c1.181,0.682,2.471,1.006,3.743,1.006c2.592,0,5.113-1.346,6.502-3.751l12.268-21.25
	l8.359,14.478c1.389,2.406,3.91,3.751,6.502,3.751c1.272,0,2.562-0.324,3.743-1.006c3.587-2.071,4.816-6.658,2.745-10.245
	l-8.359-14.478h24.053l-8.358,14.478c-2.071,3.587-0.842,8.174,2.745,10.245c1.181,0.682,2.471,1.006,3.743,1.006
	c2.592,0,5.113-1.345,6.502-3.751l8.36-14.479l12.269,21.251c1.389,2.406,3.91,3.751,6.502,3.751c1.272,0,2.563-0.324,3.743-1.006
	c3.587-2.071,4.816-6.658,2.745-10.245l-12.268-21.249h16.718c4.143,0,7.5-3.358,7.5-7.5s-3.357-7.5-7.5-7.5h-16.72l12.027-20.832
	l8.359,14.479c1.389,2.406,3.91,3.751,6.502,3.751c1.272,0,2.563-0.324,3.743-1.006c3.587-2.071,4.816-6.658,2.745-10.245
	l-8.359-14.479h24.538c4.143,0,7.5-3.358,7.5-7.5C190.125,90.921,186.768,87.563,182.625,87.563z M115.749,130.895H74.375
	L53.687,95.063l20.687-35.832h41.375l20.688,35.832L115.749,130.895z"/>
<g>
</g>
<g>
</g>
<g>
</g>
<g>
</g>
<g>
</g>
<g>
</g>
<g>
</g>
<g>
</g>
<g>
</g>
<g>
</g>
<g>
</g>
<g>
</g>
<g>
</g>
<g>
</g>
<g>
</g>
</svg>
