<?xml version="1.0" encoding="iso-8859-1"?>
<!-- Generator: Adobe Illustrator 19.0.0, SVG Export Plug-In . SVG Version: 6.00 Build 0)  -->
<svg version="1.1" id="Layer_1" xmlns="http://www.w3.org/2000/svg" xmlns:xlink="http://www.w3.org/1999/xlink" x="0px" y="0px"
	 viewBox="0 0 512 512" style="enable-background:new 0 0 512 512;" xml:space="preserve">
<g>
	<g>
		<path d="M504.485,200.391h-40.604c0.011-0.166,0.025-0.332,0.025-0.501v-40.579h16.532c4.571,0,8.165-4.238,7.412-8.75
			l-8.016-48.094c-0.604-3.624-3.739-6.279-7.413-6.279H440.36c-3.673,0-6.808,2.655-7.412,6.279l-8.016,48.094
			c-0.751,4.512,2.843,8.75,7.412,8.75h16.532v40.579c0,0.169,0.014,0.335,0.025,0.501h-37.646c0,0-3.46-11.059-3.46-11.522v-85.166
			c0-12.983-10.563-23.546-23.546-23.546H127.75c-12.983,0-23.546,10.563-23.546,23.546v85.667c0,0.342-3.46,11.021-3.46,11.021
			H63.098c0.011-0.166,0.025-0.332,0.025-0.501v-40.579h16.532c4.571,0,8.165-4.238,7.412-8.75l-8.016-48.094
			c-0.604-3.624-3.739-6.279-7.413-6.279H39.577c-3.673,0-6.808,2.655-7.412,6.279l-8.016,48.094
			c-0.753,4.512,2.842,8.75,7.412,8.75h16.532v40.579c0,0.169,0.014,0.335,0.025,0.501H7.515c-4.151,0-7.515,3.364-7.515,7.515
			v96.188c0,4.151,3.364,7.515,7.515,7.515H61.49l-4.953,14.031c-0.282,0.79-0.428,1.662-0.428,2.501v64.125
			c0,6.551,8.191,9.95,12.829,5.314l3.202-3.203v5.905c0,4.151,3.364,7.515,7.515,7.515h8.517v16.532
			c0,4.151,3.364,7.515,7.515,7.515h320.626c4.151,0,7.515-3.364,7.515-7.515v-16.532h8.517c4.151,0,7.515-3.364,7.515-7.515v-5.905
			l3.202,3.202c4.641,4.638,12.829,1.225,12.829-5.314V328.14c0-0.839-0.146-1.711-0.429-2.501l-4.952-14.03h53.975
			c4.151,0,7.515-3.364,7.515-7.515v-96.188C512,203.755,508.636,200.391,504.485,200.391z M441.216,144.282l5.511-33.065h19.331
			l5.511,33.065H441.216z M119.233,103.703c0-4.696,3.82-8.517,8.517-8.517H384.25c4.696,0,8.517,3.82,8.517,8.517v80.658h-10.618
			c1.029-2.643,1.6-5.514,1.6-8.517V127.75c0-12.983-10.563-23.546-23.546-23.546h-80.157c-12.983,0-23.546,10.563-23.546,23.546
			v48.094c0,3.003,0.571,5.873,1.6,8.517h-4.203c1.029-2.643,1.6-5.514,1.6-8.517V127.75c0-12.983-10.563-23.546-23.546-23.546
			h-80.157c-12.983,0-23.546,10.563-23.546,23.546v48.094c0,3.003,0.571,5.873,1.6,8.517h-10.617V103.703z M353.779,163.487
			l-22.672-22.673c-6.055-6.054-15.907-6.055-21.964,0.001l-22.671,22.671c-5.705,5.706-6.03,14.779-0.984,20.874h-5.441
			c-4.696,0-8.517-3.82-8.517-8.517V127.75c0-4.696,3.82-8.517,8.517-8.517h80.157c4.696,0,8.517,3.82,8.517,8.517v48.094
			c0,4.696-3.82,8.517-8.517,8.517h-5.44C359.809,178.265,359.484,169.192,353.779,163.487z M343.151,174.822
			C343.151,174.822,343.151,174.822,343.151,174.822l-22.67,22.672c-0.196,0.196-0.517,0.193-0.709,0.001L297.1,174.821
			c-0.195-0.194-0.195-0.513,0-0.708l22.67-22.671c0.098-0.098,0.227-0.146,0.355-0.146c0.129,0,0.258,0.049,0.355,0.146
			l22.671,22.673C343.347,174.309,343.347,174.628,343.151,174.822z M225.529,163.487l-22.672-22.673
			c-6.054-6.054-15.906-6.055-21.964,0.001l-22.671,22.671c-5.705,5.706-6.03,14.779-0.984,20.874h-5.441
			c-4.696,0-8.517-3.82-8.517-8.517V127.75c0-4.696,3.82-8.517,8.517-8.517h80.157c4.696,0,8.517,3.82,8.517,8.517v48.094
			c0,4.696-3.82,8.517-8.517,8.517h-5.44C231.558,178.265,231.234,169.192,225.529,163.487z M214.901,174.822
			C214.901,174.822,214.901,174.822,214.901,174.822l-22.67,22.672c-0.195,0.196-0.516,0.193-0.709,0.001l-22.671-22.674
			c-0.195-0.194-0.195-0.513,0-0.708l22.67-22.671c0.098-0.098,0.227-0.146,0.355-0.146c0.129,0,0.258,0.049,0.355,0.146
			l22.671,22.673C215.096,174.309,215.096,174.628,214.901,174.822z M117.036,199.389h53.798c0.417,0,10.06,8.733,10.06,8.733
			c5.978,5.978,15.986,5.975,21.964-0.001l8.747-8.747c0.103,0.004,88.807,0.016,88.807,0.016l8.732,8.733
			c5.978,5.978,15.986,5.975,21.964-0.001l8.731-8.732h55.126l9.018,25.55H108.018L117.036,199.389z M40.433,144.282l5.511-33.065
			h19.331l5.511,33.065H40.433z M15.029,215.421h80.41l-11.67,33.065h-68.74V215.421z M66.795,296.579H15.029v-33.065h63.436
			L66.795,296.579z M408.798,416.814H103.202v-9.018h305.597V416.814z M424.83,381.245v11.522H87.17v-12.023
			c0-0.437,11.629-13.025,11.629-13.025H413.2l11.829,11.829C424.903,380.093,424.83,380.66,424.83,381.245z M440.861,374.125
			l-19.234-19.236c-1.41-1.409-3.32-2.2-5.314-2.2H95.687c-1.993,0-3.904,0.792-5.314,2.2l-19.234,19.236v-38.469h289.065
			c4.151,0,7.515-3.364,7.515-7.515c0-4.151-3.364-7.515-7.515-7.515H74.245l28.468-80.658h306.574l28.469,80.658H384.25
			c-4.151,0-7.515,3.364-7.515,7.515c0,4.151,3.364,7.515,7.515,7.515h56.611V374.125z M496.971,296.579h-51.766l-11.67-33.065
			h63.436V296.579z M496.971,248.485h-68.739l-11.67-33.065h80.409V248.485z"/>
	</g>
</g>
<g>
	<g>
		<path d="M464.407,224.438h-16.031c-4.151,0-7.515,3.364-7.515,7.515c0,4.151,3.364,7.515,7.515,7.515h16.031
			c4.151,0,7.515-3.364,7.515-7.515C471.922,227.802,468.558,224.438,464.407,224.438z"/>
	</g>
</g>
<g>
	<g>
		<path d="M63.624,224.438H47.593c-4.151,0-7.515,3.364-7.515,7.515c0,4.151,3.364,7.515,7.515,7.515h16.031
			c4.151,0,7.515-3.364,7.515-7.515C71.139,227.802,67.775,224.438,63.624,224.438z"/>
	</g>
</g>
<g>
</g>
<g>
</g>
<g>
</g>
<g>
</g>
<g>
</g>
<g>
</g>
<g>
</g>
<g>
</g>
<g>
</g>
<g>
</g>
<g>
</g>
<g>
</g>
<g>
</g>
<g>
</g>
<g>
</g>
</svg>
