<?xml version="1.0"?>
<svg xmlns="http://www.w3.org/2000/svg" viewBox="0 0 512 512" width="512" height="512"><g id="Out_line" data-name="Out line"><path d="M487.38086,144.51807A23.70721,23.70721,0,0,0,445.832,155.58789L425.28809,272H408V238.62378A23.99787,23.99787,0,0,0,400,192H384.00024l14.40015-19.2002A8.00031,8.00031,0,0,0,392,160H352V142.9873A32.0573,32.0573,0,0,0,376,112V88a8.00008,8.00008,0,0,0-8-8H320a8.00008,8.00008,0,0,0-8,8v24a32.0573,32.0573,0,0,0,24,30.9873V160H296a8.00031,8.00031,0,0,0-6.40039,12.7998L303.99976,192H216.00024l14.40015-19.2002A8.00031,8.00031,0,0,0,224,160H184V142.9873A32.0573,32.0573,0,0,0,208,112V88a8.00008,8.00008,0,0,0-8-8H152a8.00008,8.00008,0,0,0-8,8v24a32.0573,32.0573,0,0,0,24,30.9873V160H128a8.00031,8.00031,0,0,0-6.40039,12.7998L135.99976,192H120a23.99787,23.99787,0,0,0-8,46.62378V272H86.71191L66.168,155.58789a23.7075,23.7075,0,1,0-46.67188,8.36084l28.44825,156.4668-7.9209,102.9707A7.99975,7.99975,0,0,0,48,432H64a7.99968,7.99968,0,0,0,7.79492-6.20117L94.36377,328H112v96a8.00008,8.00008,0,0,0,8,8h32a8.00008,8.00008,0,0,0,8-8V390.24341l8.20508,35.55542A7.99968,7.99968,0,0,0,176,432h16a7.99975,7.99975,0,0,0,7.97656-8.61377L192,319.69092V304a32.03635,32.03635,0,0,0-32-32V240h88V424a8.00008,8.00008,0,0,0,8,8h32a8.00008,8.00008,0,0,0,8-8V240h64v32h-8a32.03635,32.03635,0,0,0-32,32v15.69092l-7.97656,103.69531A7.99975,7.99975,0,0,0,320,432h16a7.99968,7.99968,0,0,0,7.79492-6.20117L360,355.5769V424a8.00008,8.00008,0,0,0,8,8h32a8.00008,8.00008,0,0,0,8-8V328h9.63623l22.56885,97.79883A7.99968,7.99968,0,0,0,448,432h16a7.99975,7.99975,0,0,0,7.97656-8.61377l-7.9209-102.9707,28.44825-156.46631A23.64222,23.64222,0,0,0,487.38086,144.51807ZM328,112V96h32v16a16,16,0,0,1-32,0Zm-168,0V96h32v16a16,16,0,0,1-32,0ZM408,216a8.00917,8.00917,0,0,1-8,8H286.62378a23.94021,23.94021,0,0,0,0-16H400A8.00917,8.00917,0,0,1,408,216Zm-96-40h64l-12.00024,16H324.00024Zm-104,0-12.00024,16H184V176Zm-64,0h24v16H156.00024Zm-24,32H264a8,8,0,0,1,0,16H120a8,8,0,0,1,0-16ZM57.63574,416h-.99707l6.76953-88H77.94385ZM128,416V328h16v88Zm54.36426,0-20.30811-88H176.5918l6.76953,88ZM176,304v8H62.67676L35.23828,161.08594A7.70715,7.70715,0,0,1,42.82129,152a7.69733,7.69733,0,0,1,7.59082,6.36816l21.71,123.022A7.99886,7.99886,0,0,0,80,288h80A16.01833,16.01833,0,0,1,176,304Zm-32-32H128V240h16ZM280,416H264V240h16Zm96-176h16v32H376ZM329.63574,416h-.99707l6.76953-88h14.53565ZM392,416H376V328h16Zm62.36426,0-20.30811-88H448.5918l6.76953,88Zm22.39746-254.91357L449.32324,312H336v-8a16.01833,16.01833,0,0,1,16-16h80a7.99886,7.99886,0,0,0,7.87793-6.60986l21.71-123.022A7.69733,7.69733,0,0,1,469.17871,152a7.70727,7.70727,0,0,1,7.583,9.08643Z"/></g></svg>
