<?xml version="1.0" encoding="iso-8859-1"?>
<!-- Generator: Adobe Illustrator 18.1.1, SVG Export Plug-In . SVG Version: 6.00 Build 0)  -->
<svg version="1.1" id="Capa_1" xmlns="http://www.w3.org/2000/svg" xmlns:xlink="http://www.w3.org/1999/xlink" x="0px" y="0px"
	 viewBox="0 0 337.89 337.89" style="enable-background:new 0 0 337.89 337.89;" xml:space="preserve">
<g>
	<path d="M267.945,128.101h-198c-5.522,0-10,4.477-10,10V327.89c0,5.523,4.478,10,10,10s10-4.477,10-10v-28.895h178v28.895
		c0,5.523,4.478,10,10,10s10-4.477,10-10V138.101C277.945,132.578,273.467,128.101,267.945,128.101z M257.945,281.995h-178v-62h178
		V281.995z M257.945,202.995h-178v-54.895h178V202.995z"/>
	<path d="M156.612,178.495h24.666c4.694,0,8.5-3.806,8.5-8.5c0-4.694-3.806-8.5-8.5-8.5h-24.666c-4.694,0-8.5,3.806-8.5,8.5
		C148.112,174.689,151.917,178.495,156.612,178.495z"/>
	<path d="M156.612,250.495h24.666c4.694,0,8.5-3.806,8.5-8.5c0-4.694-3.806-8.5-8.5-8.5h-24.666c-4.694,0-8.5,3.806-8.5,8.5
		C148.112,246.689,151.917,250.495,156.612,250.495z"/>
	<path d="M136.953,66.588h63.984c0.007,0.001,0.015,0.001,0.02,0c2.209,0,3.999-1.79,3.999-3.999c0-0.306-0.034-0.604-0.099-0.889
		l-7.15-58.188C197.46,1.507,195.757,0,193.738,0h-49.586c-2.02,0-3.723,1.507-3.969,3.512l-7.199,58.59
		c-0.14,1.137,0.215,2.279,0.974,3.137C134.716,66.097,135.807,66.588,136.953,66.588z"/>
	<path d="M184.572,72.812h-31.254c-2.417,0-4.457,1.798-4.761,4.196c-0.402,3.181-0.606,6.445-0.606,9.704
		c0,14.494,3.956,27.706,10.323,34.479c0.907,0.965,2.172,1.512,3.496,1.512h14.35c1.324,0,2.589-0.547,3.496-1.512
		c6.367-6.772,10.323-19.984,10.323-34.479c0-3.259-0.204-6.523-0.606-9.704C189.029,74.609,186.989,72.812,184.572,72.812z"/>
</g>
<g>
</g>
<g>
</g>
<g>
</g>
<g>
</g>
<g>
</g>
<g>
</g>
<g>
</g>
<g>
</g>
<g>
</g>
<g>
</g>
<g>
</g>
<g>
</g>
<g>
</g>
<g>
</g>
<g>
</g>
</svg>
