<?xml version="1.0" encoding="iso-8859-1"?>
<!-- Generator: Adobe Illustrator 19.0.0, SVG Export Plug-In . SVG Version: 6.00 Build 0)  -->
<svg version="1.1" id="Capa_1" xmlns="http://www.w3.org/2000/svg" xmlns:xlink="http://www.w3.org/1999/xlink" x="0px" y="0px"
	 viewBox="0 0 512 512" style="enable-background:new 0 0 512 512;" xml:space="preserve">
<g>
	<g>
		<path d="M458.667,301.24H53.333C23.936,301.24,0,325.176,0,354.573v42.667c0,29.397,23.936,53.333,53.333,53.333h405.333
			c29.397,0,53.333-23.915,53.333-53.333v-42.667C512,325.176,488.064,301.24,458.667,301.24z M490.667,397.24
			c0,17.643-14.357,32-32,32H53.333c-17.643,0-32-14.357-32-32v-42.667c0-17.643,14.357-32,32-32h405.333c17.643,0,32,14.357,32,32
			V397.24z"/>
	</g>
</g>
<g>
	<g>
		<path d="M373.333,151.907c-5.888,0-10.667,4.779-10.667,10.667v149.333c0,5.888,4.779,10.667,10.667,10.667
			c5.888,0,10.667-4.757,10.667-10.667V162.573C384,156.685,379.221,151.907,373.333,151.907z"/>
	</g>
</g>
<g>
	<g>
		<circle cx="74.667" cy="375.907" r="10.667"/>
	</g>
</g>
<g>
	<g>
		<circle cx="138.667" cy="375.907" r="10.667"/>
	</g>
</g>
<g>
	<g>
		<circle cx="202.667" cy="375.907" r="10.667"/>
	</g>
</g>
<g>
	<g>
		<circle cx="266.667" cy="375.907" r="10.667"/>
	</g>
</g>
<g>
	<g>
		<path d="M437.333,365.24H330.667c-5.888,0-10.667,4.779-10.667,10.667c0,5.888,4.779,10.667,10.667,10.667h106.667
			c5.888,0,10.667-4.779,10.667-10.667C448,370.019,443.221,365.24,437.333,365.24z"/>
	</g>
</g>
<g>
	<g>
		<path d="M341.333,162.573c0-8.555,3.328-16.576,9.365-22.635c4.16-4.16,4.16-10.923,0-15.083c-4.16-4.16-10.923-4.16-15.083,0
			C325.547,134.925,320,148.323,320,162.573c0,14.251,5.547,27.648,15.616,37.717c2.091,2.069,4.821,3.115,7.552,3.115
			c2.731,0,5.461-1.024,7.531-3.115c4.16-4.16,4.16-10.923,0-15.083C344.661,179.149,341.333,171.128,341.333,162.573z"/>
	</g>
</g>
<g>
	<g>
		<path d="M411.051,124.856c-4.16-4.16-10.923-4.16-15.083,0c-4.16,4.16-4.16,10.923,0,15.083c6.037,6.059,9.365,14.08,9.365,22.635
			c0,8.555-3.328,16.597-9.387,22.635c-4.16,4.16-4.16,10.923,0,15.083c2.091,2.069,4.821,3.115,7.552,3.115
			c2.731,0,5.461-1.024,7.552-3.115c10.069-10.069,15.616-23.467,15.616-37.717C426.667,148.323,421.12,134.925,411.051,124.856z"/>
	</g>
</g>
<g>
	<g>
		<path d="M320.512,109.795c4.16-4.16,4.16-10.923,0-15.083c-4.16-4.16-10.923-4.16-15.083,0c-37.419,37.44-37.419,98.325,0,135.765
			c2.091,2.069,4.821,3.115,7.552,3.115s5.461-1.045,7.531-3.115c4.16-4.16,4.16-10.923,0-15.083
			C291.413,186.275,291.413,138.915,320.512,109.795z"/>
	</g>
</g>
<g>
	<g>
		<path d="M441.216,94.712c-4.16-4.16-10.923-4.16-15.083,0c-4.16,4.16-4.16,10.923,0,15.083c29.099,29.12,29.099,76.48,0,105.6
			c-4.16,4.16-4.16,10.923,0,15.083c2.091,2.069,4.821,3.115,7.552,3.115s5.44-1.045,7.531-3.115
			C478.635,193.037,478.635,132.152,441.216,94.712z"/>
	</g>
</g>
<g>
	<g>
		<path d="M290.347,79.629c4.16-4.16,4.16-10.923,0-15.083c-4.16-4.16-10.923-4.16-15.083,0
			c-54.059,54.059-54.059,142.037,0,196.096c2.091,2.069,4.821,3.115,7.552,3.115c2.731,0,5.461-1.045,7.531-3.115
			c4.16-4.16,4.16-10.923,0-15.083C244.587,199.821,244.587,125.389,290.347,79.629z"/>
	</g>
</g>
<g>
	<g>
		<path d="M471.381,64.547c-4.16-4.16-10.923-4.16-15.083,0c-4.16,4.16-4.16,10.923,0,15.083c45.76,45.739,45.76,120.171,0,165.931
			c-4.16,4.16-4.16,10.923,0,15.083c2.091,2.069,4.821,3.115,7.552,3.115c2.731,0,5.461-1.045,7.531-3.115
			C525.44,206.584,525.44,118.605,471.381,64.547z"/>
	</g>
</g>
<g>
</g>
<g>
</g>
<g>
</g>
<g>
</g>
<g>
</g>
<g>
</g>
<g>
</g>
<g>
</g>
<g>
</g>
<g>
</g>
<g>
</g>
<g>
</g>
<g>
</g>
<g>
</g>
<g>
</g>
</svg>
