<svg id="icons" enable-background="new 0 0 64 64" height="512" viewBox="0 0 64 64" width="512" xmlns="http://www.w3.org/2000/svg"><path d="m61 6.003h-58c-1.654 0-3 1.346-3 3v37.997c0 1.654 1.346 3 3 3h17.013v2.996h-5.019c-1.654 0-3 1.346-3 3v1c0 .553.447 1 1 1h38.012c.553 0 1-.447 1-1v-1c0-1.654-1.346-3-3-3h-4.972v-2.996h16.966c1.654 0 3-1.346 3-3v-37.997c0-1.654-1.346-3-3-3zm-58 2h58c.552 0 1 .449 1 1v34.997h-60v-34.997c0-.551.448-1 1-1zm11.994 46.993h34.012c.552 0 1 .448 1 1h-36.012c0-.552.448-1 1-1zm27.04-2h-20.021v-2.996h20.021zm18.966-4.996h-58c-.552 0-1-.448-1-1v-1h30.023c-.542.011-.975.45-.975.996 0 .553.452 1 1.005 1 .552 0 1-.447 1-1 0-.546-.438-.985-.98-.996h29.927v1c0 .552-.448 1-1 1z"/></svg>