<?xml version="1.0" encoding="iso-8859-1"?>
<!-- Generator: Adobe Illustrator 19.0.0, SVG Export Plug-In . SVG Version: 6.00 Build 0)  -->
<svg version="1.1" id="Capa_1" xmlns="http://www.w3.org/2000/svg" xmlns:xlink="http://www.w3.org/1999/xlink" x="0px" y="0px"
	 viewBox="0 0 508 508" style="enable-background:new 0 0 508 508;" xml:space="preserve">
<g>
	<g>
		<path d="M254,90.1c-90.4,0-163.9,73.5-163.9,163.9S163.6,417.9,254,417.9S417.9,344.4,417.9,254S344.4,90.1,254,90.1z M254,401.5
			c-81.3,0-147.5-66.2-147.5-147.5S172.7,106.5,254,106.5S401.5,172.7,401.5,254S335.3,401.5,254,401.5z"/>
	</g>
</g>
<g>
	<g>
		<rect x="245.8" width="16.4" height="65.5"/>
	</g>
</g>
<g>
	<g>
		<rect x="245.8" y="442.5" width="16.4" height="65.5"/>
	</g>
</g>
<g>
	<g>
		<rect x="161.152" y="16.867" transform="matrix(0.9239 -0.3827 0.3827 0.9239 -6.0965 68.5862)" width="16.4" height="65.502"/>
	</g>
</g>
<g>
	<g>
		
			<rect x="330.48" y="425.618" transform="matrix(0.9239 -0.3827 0.3827 0.9239 -149.6324 164.5032)" width="16.4" height="65.502"/>
	</g>
</g>
<g>
	<g>
		<rect x="89.345" y="64.829" transform="matrix(0.7071 -0.7071 0.7071 0.7071 -40.4286 97.5547)" width="16.4" height="65.499"/>
	</g>
</g>
<g>
	<g>
		
			<rect x="402.165" y="377.689" transform="matrix(0.7071 -0.7071 0.7071 0.7071 -170.0309 410.3863)" width="16.4" height="65.499"/>
	</g>
</g>
<g>
	<g>
		<polygon points="22.5,149.2 16.2,164.4 76.8,189.5 83,174.3 		"/>
	</g>
</g>
<g>
	<g>
		
			<rect x="450.202" y="305.791" transform="matrix(0.3827 -0.9239 0.9239 0.3827 -29.8405 632.5246)" width="16.4" height="65.602"/>
	</g>
</g>
<g>
	<g>
		<rect x="305.959" y="41.372" transform="matrix(0.3828 -0.9238 0.9238 0.3828 163.251 343.5029)" width="65.498" height="16.4"/>
	</g>
</g>
<g>
	<g>
		
			<rect x="136.61" y="450.182" transform="matrix(0.3829 -0.9238 0.9238 0.3829 -318.9054 439.3687)" width="65.601" height="16.4"/>
	</g>
</g>
<g>
	<g>
		<rect x="377.667" y="89.33" transform="matrix(0.7071 -0.7071 0.7071 0.7071 51.2443 318.7742)" width="65.499" height="16.4"/>
	</g>
</g>
<g>
	<g>
		<rect x="64.817" y="402.19" transform="matrix(0.7071 -0.7071 0.7071 0.7071 -261.6127 189.19)" width="65.499" height="16.4"/>
	</g>
</g>
<g>
	<g>
		
			<rect x="425.579" y="161.201" transform="matrix(0.9239 -0.3827 0.3827 0.9239 -29.9347 188.3128)" width="65.602" height="16.4"/>
	</g>
</g>
<g>
	<g>
		<polygon points="76.8,318.5 16.2,343.6 22.5,358.8 83,333.7 		"/>
	</g>
</g>
<g>
	<g>
		<rect y="245.8" width="65.5" height="16.4"/>
	</g>
</g>
<g>
	<g>
		<rect x="442.5" y="245.8" width="65.5" height="16.4"/>
	</g>
</g>
<g>
</g>
<g>
</g>
<g>
</g>
<g>
</g>
<g>
</g>
<g>
</g>
<g>
</g>
<g>
</g>
<g>
</g>
<g>
</g>
<g>
</g>
<g>
</g>
<g>
</g>
<g>
</g>
<g>
</g>
</svg>
